<svg width="40" height="40" viewBox="0 0 40 40" fill="none" xmlns="http://www.w3.org/2000/svg">
<g clip-path="url(#clip0_12883_1596)">
<path d="M20 39.5C30.7696 39.5 39.5 30.7696 39.5 20C39.5 9.23045 30.7696 0.5 20 0.5C9.23045 0.5 0.5 9.23045 0.5 20C0.5 30.7696 9.23045 39.5 20 39.5Z" stroke="#091311"/>
<path fill-rule="evenodd" clip-rule="evenodd" d="M20 9C13.9247 9 9 14.0489 9 20.279C9 25.2615 12.1515 29.4896 16.5229 30.9804C17.0729 31.084 17.2731 30.736 17.2731 30.4365C17.2731 30.1697 17.2643 29.4592 17.2588 28.519C14.1986 29.2002 13.5529 27.0068 13.5529 27.0068C13.0535 25.7029 12.3319 25.3561 12.3319 25.3561C11.3331 24.658 12.4078 24.6715 12.4078 24.6715C13.5111 24.7503 14.0919 25.8335 14.0919 25.8335C15.0731 27.5562 16.667 27.0586 17.2929 26.7703C17.3941 26.0418 17.6779 25.5452 17.9925 25.2637C15.5505 24.9789 12.982 24.0105 12.982 19.689C12.982 18.4583 13.411 17.4505 14.1139 16.6623C14.0006 16.3775 13.6233 15.2301 14.2217 13.6785C14.2217 13.6785 15.1457 13.3745 17.2467 14.8337C18.144 14.5832 19.0699 14.4556 20 14.4543C20.935 14.4588 21.8755 14.5838 22.7544 14.8337C24.8543 13.3745 25.7761 13.6773 25.7761 13.6773C26.3767 15.2301 25.9983 16.3775 25.8861 16.6623C26.5901 17.4505 27.0169 18.4583 27.0169 19.689C27.0169 24.0218 24.444 24.9755 21.9943 25.2547C22.3892 25.6027 22.7401 26.2906 22.7401 27.3434C22.7401 28.85 22.7269 30.0672 22.7269 30.4365C22.7269 30.7383 22.9249 31.0896 23.4837 30.9792C25.6741 30.2272 27.5783 28.7895 28.927 26.8695C30.2758 24.9494 31.0009 22.6439 31 20.279C31 14.0489 26.0742 9 20 9Z" fill="#091311"/>
</g>
<defs>
<clipPath id="clip0_12883_1596">
<rect width="40" height="40" fill="white"/>
</clipPath>
</defs>
</svg>
