<svg width="40" height="40" viewBox="0 0 40 40" fill="none" xmlns="http://www.w3.org/2000/svg">
<circle cx="20" cy="20" r="19.5" stroke="#091311"/>
<path d="M13.2095 17.2025H16.6381V27H13.2095V17.2025ZM14.9238 15.6646C14.3778 15.6646 13.9206 15.4937 13.5524 15.1519C13.1841 14.7975 13 14.3608 13 13.8418C13 13.3228 13.1841 12.8861 13.5524 12.5316C13.9206 12.1772 14.3778 12 14.9238 12C15.4698 12 15.927 12.1772 16.2952 12.5316C16.6635 12.8861 16.8476 13.3228 16.8476 13.8418C16.8476 14.3608 16.6635 14.7975 16.2952 15.1519C15.927 15.4937 15.4698 15.6646 14.9238 15.6646Z" fill="#091311"/>
<path d="M18.362 17.2025H21.7143L21.7524 18.4177C21.9937 17.9367 22.362 17.5633 22.8572 17.2975C23.3524 17.0316 23.9238 16.8987 24.5715 16.8987C25.7016 16.8987 26.5524 17.2532 27.1238 17.962C27.7079 18.6582 28 19.6835 28 21.038V27H24.5715V21.6835C24.5715 20.519 24.1334 19.9367 23.2572 19.9367C22.7874 19.9367 22.4255 20.1013 22.1715 20.4304C21.9175 20.7468 21.7905 21.2089 21.7905 21.8165V27H18.362V17.2025Z" fill="#091311"/>
</svg>
