<svg width="32" height="32" viewBox="0 0 32 32" fill="none" xmlns="http://www.w3.org/2000/svg">
<path d="M13.0317 23C19.0694 23 22.3718 17.9981 22.3718 13.6604C22.3718 13.5184 22.3718 13.3769 22.3622 13.2361C23.0047 12.7715 23.5593 12.1961 24 11.5371C23.4009 11.8025 22.7653 11.9766 22.1146 12.0535C22.7998 11.6433 23.3127 10.9981 23.5578 10.2379C22.9134 10.6203 22.2084 10.8897 21.4733 11.0347C20.9783 10.5084 20.3237 10.16 19.6108 10.0432C18.8978 9.92644 18.1663 10.0479 17.5293 10.3888C16.8923 10.7296 16.3855 11.2709 16.0872 11.9289C15.7888 12.5868 15.7157 13.3247 15.879 14.0284C14.5739 13.963 13.2971 13.6239 12.1316 13.033C10.9661 12.4422 9.93782 11.6129 9.1136 10.5989C8.69382 11.3215 8.56525 12.1769 8.75407 12.991C8.94288 13.8051 9.43489 14.5166 10.1299 14.9807C9.60751 14.9652 9.0965 14.8243 8.64 14.5698C8.64 14.5833 8.64 14.5973 8.64 14.6114C8.64021 15.3693 8.90257 16.1037 9.38258 16.6902C9.86259 17.2767 10.5307 17.6791 11.2736 17.8291C10.7903 17.9609 10.2833 17.9802 9.79136 17.8854C10.0011 18.5377 10.4095 19.108 10.9594 19.5168C11.5093 19.9255 12.1732 20.1521 12.8582 20.165C11.6958 21.0785 10.2599 21.5744 8.78144 21.5729C8.52026 21.5724 8.25933 21.5566 8 21.5255C9.50121 22.4888 11.2479 22.9998 13.0317 22.9974" fill="#091311"/>
</svg>
